<ttFont>
<head>
    <!-- Most of this table will be recalculated by the compiler -->
    <tableVersion value="1.0"/>
    <fontRevision value="1.004"/>
    <checkSumAdjustment value="0xfd7feb82"/>
    <magicNumber value="0x5f0f3cf5"/>
    <flags value="00000000 00000011"/>
    <unitsPerEm value="1000"/>
    <created value="Mon Jun 15 05:06:56 2015"/>
    <modified value="Thu Feb 20 21:40:15 2020"/>
    <xMin value="30"/>
    <yMin value="-82"/>
    <xMax value="972"/>
    <yMax value="838"/>
    <macStyle value="00000000 00000000"/>
    <lowestRecPPEM value="3"/>
    <fontDirectionHint value="2"/>
    <indexToLocFormat value="0"/>
    <glyphDataFormat value="0"/>
  </head>
        <CharString name=".notdef" fdSelectIndex="0">
          endchar
        </CharString>
        <CharString name="cid12223" fdSelectIndex="1">
          endchar
        </CharString>
        <CharString name="cid12224" fdSelectIndex="1">
          endchar
        </CharString>
        <CharString name="cid12342" fdSelectIndex="1">
          -59 73 170 70 411 69 hstem
          77 72 144 73 189 76 255 72 cntrmask 01111100
          293 665 rmoveto
          -411 -144 411 vlineto
          217 69 rmoveto
          -289 -646 72 96 217 hlineto
          316 -170 rmoveto
          -43 -8 10 50 hvcurveto
          287 vlineto
          112 75 108 90 83 96 -72 49 rcurveline
          -61 -77 -82 -75 -88 -65 rrcurveto
          361 -76 -414 vlineto
          -60 -39 -60 -35 -58 -27 17 -15 24 -26 12 -16 41 20 42 23 42 26 rrcurveto
          -236 vlineto
          -105 27 -30 91 vhcurveto
          -107 callgsubr
          93 20 60 167 10 hvcurveto
          -22 5 -30 14 -20 16 rrcurveto
          -150 -5 -7 -39 -43 hhcurveto
          endchar
        </CharString>
        <CharString name="cid15450" fdSelectIndex="1">
          endchar
        </CharString>
        <CharString name="cid15451" fdSelectIndex="1">
          endchar
        </CharString>
        <CharString name="cid15452" fdSelectIndex="1">
          endchar
        </CharString>
        <CharString name="cid18153" fdSelectIndex="1">
          endchar
        </CharString>
        <CharString name="cid18154" fdSelectIndex="1">
          endchar
        </CharString>
        <CharString name="cid18155" fdSelectIndex="1">
          endchar
        </CharString>
        <CharString name="cid59592" fdSelectIndex="1">
          -49 71 205 69 377 70 hstem
          79 70 159 71 161 75 281 69 cntrmask 01111100
          308 673 rmoveto
          -377 -159 377 vlineto
          230 70 rmoveto
          -300 -602 70 86 230 hlineto
          292 -205 rmoveto
          -47 -9 10 51 hvcurveto
          345 vlineto
          345 85 -18 68 -327 -80 rlineto
          319 -75 -337 vlineto
          -158 -39 17 -69 141 35 rlineto
          -326 vlineto
          -105 29 -28 95 vhcurveto
          178 hlineto
          92 21 53 154 10 hvcurveto
          -21 6 -29 13 -19 13 rrcurveto
          -134 -6 -7 -34 -45 hhcurveto
          endchar
        </CharString>
        <CharString name="cid59593" fdSelectIndex="1">
          endchar
        </CharString>
        <CharString name="cid61789" fdSelectIndex="1">
          endchar
        </CharString>
        <CharString name="cid61811" fdSelectIndex="1">
          endchar
        </CharString>
        <CharString name="cid62031" fdSelectIndex="1">
          endchar
        </CharString>
        <CharString name="cid62032" fdSelectIndex="1">
          endchar
        </CharString>
        <CharString name="cid62033" fdSelectIndex="1">
          endchar
        </CharString>
        <CharString name="cid62034" fdSelectIndex="1">
          endchar
        </CharString>
        <CharString name="cid62039" fdSelectIndex="1">
          -52 71 206 69 377 69 hstem
          79 70 162 72 100 75 331 70 cntrmask 01111100
          311 671 rmoveto
          -377 -162 377 vlineto
          234 69 rmoveto
          -304 -618 70 103 234 hlineto
          240 -206 rmoveto
          -54 -11 12 55 hvcurveto
          261 vlineto
          131 76 143 98 93 94 -55 48 rcurveline
          -74 -77 -120 -88 -118 -70 rrcurveto
          407 -75 -748 vlineto
          -109 32 -30 103 vhcurveto
          206 hlineto
          102 22 56 157 11 hvcurveto
          -21 5 -30 13 -19 14 rrcurveto
          -138 -7 -9 -36 -53 hhcurveto
          endchar
        </CharString>
      <CharString index="0">
        162 hlineto
        return
      </CharString>
</ttFont>
